<?xml version="1.0" encoding="UTF-8"?>
<svg width="100" height="100" viewBox="0 0 100 100" xmlns="http://www.w3.org/2000/svg">
  <defs>
    <pattern id="coffee-beans" x="0" y="0" width="50" height="50" patternUnits="userSpaceOnUse">
      <path d="M25,10 C35,10 40,20 40,25 C40,30 35,40 25,40 C15,40 10,30 10,25 C10,20 15,10 25,10 Z" fill="#8B4513" opacity="0.1"/>
      <path d="M45,30 C55,30 60,40 60,45 C60,50 55,60 45,60 C35,60 30,50 30,45 C30,40 35,30 45,30 Z" fill="#8B4513" opacity="0.1"/>
    </pattern>
  </defs>
  <rect width="100" height="100" fill="url(#coffee-beans)"/>
</svg> 